<mxfile host="Electron" modified="2023-05-05T20:07:26.141Z" agent="Mozilla/5.0 (Macintosh; Intel Mac OS X 10_15_7) AppleWebKit/537.36 (KHTML, like Gecko) draw.io/21.2.8 Chrome/112.0.5615.165 Electron/24.2.0 Safari/537.36" etag="cor7kwtuYp_HbvqRcYn_" version="21.2.8" type="device">
  <diagram name="Página-1" id="zirSL0gxOVmWbG5Ei2rB">
    <mxGraphModel dx="1121" dy="843" grid="1" gridSize="10" guides="1" tooltips="1" connect="1" arrows="1" fold="1" page="1" pageScale="1" pageWidth="827" pageHeight="1169" math="0" shadow="0">
      <root>
        <mxCell id="0" />
        <mxCell id="1" parent="0" />
        <mxCell id="fzL_nfD18VUowYK3P-np-71" value="" style="shape=ext;double=1;rounded=1;whiteSpace=wrap;html=1;fillColor=#f8cecc;strokeColor=#b85450;arcSize=8;opacity=30;" vertex="1" parent="1">
          <mxGeometry x="700" y="146" width="120" height="100" as="geometry" />
        </mxCell>
        <mxCell id="fzL_nfD18VUowYK3P-np-60" value="" style="shape=ext;double=1;rounded=1;whiteSpace=wrap;html=1;fillColor=#d5e8d4;strokeColor=#82b366;arcSize=8;opacity=30;" vertex="1" parent="1">
          <mxGeometry x="50" y="416" width="160" height="189.37" as="geometry" />
        </mxCell>
        <mxCell id="fzL_nfD18VUowYK3P-np-59" value="" style="shape=ext;double=1;rounded=1;whiteSpace=wrap;html=1;fillColor=#fff2cc;strokeColor=#d6b656;arcSize=8;opacity=30;" vertex="1" parent="1">
          <mxGeometry x="300" y="446" width="190" height="100" as="geometry" />
        </mxCell>
        <mxCell id="fzL_nfD18VUowYK3P-np-58" value="" style="shape=ext;double=1;rounded=1;whiteSpace=wrap;html=1;fillColor=#dae8fc;strokeColor=none;arcSize=8;opacity=30;" vertex="1" parent="1">
          <mxGeometry x="110" y="76" width="570" height="230" as="geometry" />
        </mxCell>
        <mxCell id="fzL_nfD18VUowYK3P-np-33" style="edgeStyle=orthogonalEdgeStyle;rounded=0;orthogonalLoop=1;jettySize=auto;html=1;exitX=0.5;exitY=0;exitDx=0;exitDy=0;exitPerimeter=0;entryX=0;entryY=0.5;entryDx=0;entryDy=0;entryPerimeter=0;" edge="1" parent="1" source="fzL_nfD18VUowYK3P-np-2" target="fzL_nfD18VUowYK3P-np-17">
          <mxGeometry relative="1" as="geometry" />
        </mxCell>
        <mxCell id="fzL_nfD18VUowYK3P-np-2" value="" style="outlineConnect=0;dashed=0;verticalLabelPosition=bottom;verticalAlign=top;align=center;html=1;shape=mxgraph.aws3.traditional_server;fillColor=#7D7C7C;gradientColor=none;" vertex="1" parent="1">
          <mxGeometry x="368.75" y="456" width="46.5" height="63" as="geometry" />
        </mxCell>
        <mxCell id="fzL_nfD18VUowYK3P-np-35" style="edgeStyle=orthogonalEdgeStyle;rounded=0;orthogonalLoop=1;jettySize=auto;html=1;exitX=0.5;exitY=0;exitDx=0;exitDy=0;exitPerimeter=0;entryX=0;entryY=0.5;entryDx=0;entryDy=0;entryPerimeter=0;" edge="1" parent="1" source="fzL_nfD18VUowYK3P-np-3" target="fzL_nfD18VUowYK3P-np-17">
          <mxGeometry relative="1" as="geometry" />
        </mxCell>
        <mxCell id="fzL_nfD18VUowYK3P-np-3" value="" style="outlineConnect=0;dashed=0;verticalLabelPosition=bottom;verticalAlign=top;align=center;html=1;shape=mxgraph.aws3.traditional_server;fillColor=#7D7C7C;gradientColor=none;" vertex="1" parent="1">
          <mxGeometry x="308.75" y="456" width="46.5" height="63" as="geometry" />
        </mxCell>
        <mxCell id="fzL_nfD18VUowYK3P-np-36" style="edgeStyle=orthogonalEdgeStyle;rounded=0;orthogonalLoop=1;jettySize=auto;html=1;exitX=0.5;exitY=0;exitDx=0;exitDy=0;exitPerimeter=0;entryX=0;entryY=0.5;entryDx=0;entryDy=0;entryPerimeter=0;" edge="1" parent="1" source="fzL_nfD18VUowYK3P-np-4" target="fzL_nfD18VUowYK3P-np-17">
          <mxGeometry relative="1" as="geometry" />
        </mxCell>
        <mxCell id="fzL_nfD18VUowYK3P-np-4" value="" style="outlineConnect=0;dashed=0;verticalLabelPosition=bottom;verticalAlign=top;align=center;html=1;shape=mxgraph.aws3.traditional_server;fillColor=#7D7C7C;gradientColor=none;" vertex="1" parent="1">
          <mxGeometry x="428.75" y="456" width="46.5" height="63" as="geometry" />
        </mxCell>
        <mxCell id="fzL_nfD18VUowYK3P-np-6" value="" style="image;points=[];aspect=fixed;html=1;align=center;shadow=0;dashed=0;image=img/lib/allied_telesis/storage/Datacenter_Server_Rack.svg;" vertex="1" parent="1">
          <mxGeometry x="352.65" y="116" width="88.2" height="178.8" as="geometry" />
        </mxCell>
        <mxCell id="fzL_nfD18VUowYK3P-np-10" value="" style="image;points=[];aspect=fixed;html=1;align=center;shadow=0;dashed=0;image=img/lib/allied_telesis/storage/Datacenter_Server_Rack.svg;" vertex="1" parent="1">
          <mxGeometry x="240" y="116" width="88.2" height="178.8" as="geometry" />
        </mxCell>
        <mxCell id="fzL_nfD18VUowYK3P-np-11" value="" style="image;points=[];aspect=fixed;html=1;align=center;shadow=0;dashed=0;image=img/lib/allied_telesis/storage/Datacenter_Server_Rack.svg;" vertex="1" parent="1">
          <mxGeometry x="127.65" y="116" width="88.2" height="178.8" as="geometry" />
        </mxCell>
        <mxCell id="fzL_nfD18VUowYK3P-np-12" value="" style="image;points=[];aspect=fixed;html=1;align=center;shadow=0;dashed=0;image=img/lib/allied_telesis/storage/Datacenter_Server_Rack.svg;" vertex="1" parent="1">
          <mxGeometry x="577.65" y="116" width="88.2" height="178.8" as="geometry" />
        </mxCell>
        <mxCell id="fzL_nfD18VUowYK3P-np-13" value="" style="image;points=[];aspect=fixed;html=1;align=center;shadow=0;dashed=0;image=img/lib/allied_telesis/storage/Datacenter_Server_Rack.svg;" vertex="1" parent="1">
          <mxGeometry x="465" y="116" width="88.2" height="178.8" as="geometry" />
        </mxCell>
        <mxCell id="fzL_nfD18VUowYK3P-np-21" style="edgeStyle=orthogonalEdgeStyle;rounded=0;orthogonalLoop=1;jettySize=auto;html=1;exitX=0.5;exitY=0;exitDx=0;exitDy=0;exitPerimeter=0;entryX=0.5;entryY=1;entryDx=0;entryDy=0;" edge="1" parent="1" source="fzL_nfD18VUowYK3P-np-16" target="fzL_nfD18VUowYK3P-np-18">
          <mxGeometry relative="1" as="geometry" />
        </mxCell>
        <mxCell id="fzL_nfD18VUowYK3P-np-22" style="edgeStyle=orthogonalEdgeStyle;rounded=0;orthogonalLoop=1;jettySize=auto;html=1;exitX=0.5;exitY=0;exitDx=0;exitDy=0;exitPerimeter=0;entryX=0.5;entryY=1;entryDx=0;entryDy=0;" edge="1" parent="1" source="fzL_nfD18VUowYK3P-np-16" target="fzL_nfD18VUowYK3P-np-19">
          <mxGeometry relative="1" as="geometry" />
        </mxCell>
        <mxCell id="fzL_nfD18VUowYK3P-np-23" style="edgeStyle=orthogonalEdgeStyle;rounded=0;orthogonalLoop=1;jettySize=auto;html=1;exitX=0.5;exitY=0;exitDx=0;exitDy=0;exitPerimeter=0;entryX=0.5;entryY=1;entryDx=0;entryDy=0;" edge="1" parent="1" source="fzL_nfD18VUowYK3P-np-16" target="fzL_nfD18VUowYK3P-np-20">
          <mxGeometry relative="1" as="geometry" />
        </mxCell>
        <mxCell id="fzL_nfD18VUowYK3P-np-16" value="" style="points=[[0.13,0.02,0],[0.5,0,0],[0.87,0.02,0],[0.885,0.4,0],[0.985,0.985,0],[0.5,1,0],[0.015,0.985,0],[0.115,0.4,0]];verticalLabelPosition=bottom;sketch=0;html=1;verticalAlign=top;aspect=fixed;align=center;pointerEvents=1;shape=mxgraph.cisco19.laptop;fillColor=#005073;strokeColor=none;" vertex="1" parent="1">
          <mxGeometry x="339.86" y="616" width="104.29" height="73" as="geometry" />
        </mxCell>
        <mxCell id="fzL_nfD18VUowYK3P-np-17" value="" style="sketch=0;points=[[0.015,0.015,0],[0.985,0.015,0],[0.985,0.985,0],[0.015,0.985,0],[0.25,0,0],[0.5,0,0],[0.75,0,0],[1,0.25,0],[1,0.5,0],[1,0.75,0],[0.75,1,0],[0.5,1,0],[0.25,1,0],[0,0.75,0],[0,0.5,0],[0,0.25,0]];verticalLabelPosition=bottom;html=1;verticalAlign=top;aspect=fixed;align=center;pointerEvents=1;shape=mxgraph.cisco19.rect;prIcon=content_router;fillColor=#FAFAFA;strokeColor=#005073;rotation=-90;" vertex="1" parent="1">
          <mxGeometry x="360" y="346" width="64" height="50" as="geometry" />
        </mxCell>
        <mxCell id="fzL_nfD18VUowYK3P-np-18" value="Login1" style="text;html=1;strokeColor=none;fillColor=none;align=center;verticalAlign=middle;whiteSpace=wrap;rounded=0;" vertex="1" parent="1">
          <mxGeometry x="300" y="519" width="60" height="30" as="geometry" />
        </mxCell>
        <mxCell id="fzL_nfD18VUowYK3P-np-19" value="Login2" style="text;html=1;strokeColor=none;fillColor=none;align=center;verticalAlign=middle;whiteSpace=wrap;rounded=0;" vertex="1" parent="1">
          <mxGeometry x="362" y="519" width="60" height="30" as="geometry" />
        </mxCell>
        <mxCell id="fzL_nfD18VUowYK3P-np-20" value="Login3" style="text;html=1;strokeColor=none;fillColor=none;align=center;verticalAlign=middle;whiteSpace=wrap;rounded=0;" vertex="1" parent="1">
          <mxGeometry x="422" y="519" width="60" height="30" as="geometry" />
        </mxCell>
        <mxCell id="fzL_nfD18VUowYK3P-np-24" value="/$USER/home/&lt;br&gt;/$USER/home/proyectos/&lt;br&gt;/scratch/$USER/" style="text;html=1;strokeColor=none;fillColor=none;align=left;verticalAlign=middle;whiteSpace=wrap;rounded=0;" vertex="1" parent="1">
          <mxGeometry x="60" y="549" width="126.8" height="40" as="geometry" />
        </mxCell>
        <mxCell id="fzL_nfD18VUowYK3P-np-28" value="&lt;font style=&quot;font-size: 16px;&quot;&gt;&lt;b&gt;Servidor almacenamiento&lt;/b&gt;&lt;/font&gt;" style="text;html=1;strokeColor=none;fillColor=none;align=center;verticalAlign=middle;whiteSpace=wrap;rounded=0;rotation=-90;" vertex="1" parent="1">
          <mxGeometry x="-40" y="492.81" width="126.8" height="35.75" as="geometry" />
        </mxCell>
        <mxCell id="fzL_nfD18VUowYK3P-np-29" value="&lt;font style=&quot;font-size: 16px;&quot;&gt;&lt;b&gt;Servidores cómputo&lt;/b&gt;&lt;/font&gt;" style="text;html=1;strokeColor=none;fillColor=none;align=center;verticalAlign=middle;whiteSpace=wrap;rounded=0;" vertex="1" parent="1">
          <mxGeometry x="338.34999999999997" y="26" width="126.8" height="35.75" as="geometry" />
        </mxCell>
        <mxCell id="fzL_nfD18VUowYK3P-np-32" value="" style="endArrow=classic;startArrow=classic;html=1;rounded=0;fillColor=#dae8fc;strokeColor=#6c8ebf;strokeWidth=3;" edge="1" parent="1">
          <mxGeometry width="50" height="50" relative="1" as="geometry">
            <mxPoint x="167" y="496" as="sourcePoint" />
            <mxPoint x="297" y="496" as="targetPoint" />
          </mxGeometry>
        </mxCell>
        <mxCell id="fzL_nfD18VUowYK3P-np-37" value="&lt;font style=&quot;font-size: 16px;&quot;&gt;&lt;b&gt;Sistema de gestión de colas (Slurm)&lt;/b&gt;&lt;/font&gt;" style="text;html=1;strokeColor=none;fillColor=none;align=center;verticalAlign=middle;whiteSpace=wrap;rounded=0;" vertex="1" parent="1">
          <mxGeometry x="422" y="353.12" width="126.8" height="35.75" as="geometry" />
        </mxCell>
        <mxCell id="fzL_nfD18VUowYK3P-np-46" value="" style="shape=curlyBracket;whiteSpace=wrap;html=1;rounded=1;labelPosition=left;verticalLabelPosition=middle;align=right;verticalAlign=middle;rotation=-90;" vertex="1" parent="1">
          <mxGeometry x="387.1" y="44" width="20" height="550" as="geometry" />
        </mxCell>
        <mxCell id="fzL_nfD18VUowYK3P-np-53" value="" style="edgeStyle=orthogonalEdgeStyle;rounded=0;orthogonalLoop=1;jettySize=auto;html=1;entryX=0.535;entryY=-0.001;entryDx=0;entryDy=0;entryPerimeter=0;fillColor=#dae8fc;strokeColor=#6c8ebf;strokeWidth=3;" edge="1" parent="1" source="fzL_nfD18VUowYK3P-np-8" target="fzL_nfD18VUowYK3P-np-6">
          <mxGeometry relative="1" as="geometry">
            <mxPoint x="320" y="346" as="targetPoint" />
            <Array as="points">
              <mxPoint x="90" y="96" />
              <mxPoint x="400" y="96" />
            </Array>
          </mxGeometry>
        </mxCell>
        <mxCell id="fzL_nfD18VUowYK3P-np-54" style="edgeStyle=orthogonalEdgeStyle;rounded=0;orthogonalLoop=1;jettySize=auto;html=1;entryX=0.481;entryY=-0.004;entryDx=0;entryDy=0;entryPerimeter=0;fillColor=#dae8fc;strokeColor=#6c8ebf;strokeWidth=3;" edge="1" parent="1" source="fzL_nfD18VUowYK3P-np-8" target="fzL_nfD18VUowYK3P-np-13">
          <mxGeometry relative="1" as="geometry">
            <Array as="points">
              <mxPoint x="90" y="96" />
              <mxPoint x="507" y="96" />
            </Array>
          </mxGeometry>
        </mxCell>
        <mxCell id="fzL_nfD18VUowYK3P-np-55" style="edgeStyle=orthogonalEdgeStyle;rounded=0;orthogonalLoop=1;jettySize=auto;html=1;entryX=0.487;entryY=0.002;entryDx=0;entryDy=0;entryPerimeter=0;fillColor=#dae8fc;strokeColor=#6c8ebf;strokeWidth=3;" edge="1" parent="1" source="fzL_nfD18VUowYK3P-np-8" target="fzL_nfD18VUowYK3P-np-12">
          <mxGeometry relative="1" as="geometry">
            <Array as="points">
              <mxPoint x="90" y="96" />
              <mxPoint x="621" y="96" />
            </Array>
          </mxGeometry>
        </mxCell>
        <mxCell id="fzL_nfD18VUowYK3P-np-56" style="edgeStyle=orthogonalEdgeStyle;rounded=0;orthogonalLoop=1;jettySize=auto;html=1;entryX=0.486;entryY=0.003;entryDx=0;entryDy=0;entryPerimeter=0;fillColor=#dae8fc;strokeColor=#6c8ebf;strokeWidth=3;" edge="1" parent="1" source="fzL_nfD18VUowYK3P-np-8" target="fzL_nfD18VUowYK3P-np-10">
          <mxGeometry relative="1" as="geometry">
            <Array as="points">
              <mxPoint x="90" y="96" />
              <mxPoint x="283" y="96" />
            </Array>
          </mxGeometry>
        </mxCell>
        <mxCell id="fzL_nfD18VUowYK3P-np-57" style="edgeStyle=orthogonalEdgeStyle;rounded=0;orthogonalLoop=1;jettySize=auto;html=1;entryX=0.471;entryY=-0.003;entryDx=0;entryDy=0;entryPerimeter=0;fillColor=#dae8fc;strokeColor=#6c8ebf;strokeWidth=3;" edge="1" parent="1" source="fzL_nfD18VUowYK3P-np-8" target="fzL_nfD18VUowYK3P-np-11">
          <mxGeometry relative="1" as="geometry">
            <Array as="points">
              <mxPoint x="90" y="96" />
              <mxPoint x="169" y="96" />
            </Array>
          </mxGeometry>
        </mxCell>
        <mxCell id="fzL_nfD18VUowYK3P-np-8" value="" style="image;points=[];aspect=fixed;html=1;align=center;shadow=0;dashed=0;image=img/lib/allied_telesis/storage/Datacenter_Server_Storage_Unit_Large.svg;" vertex="1" parent="1">
          <mxGeometry x="64.92" y="437.5" width="96.97" height="100" as="geometry" />
        </mxCell>
        <mxCell id="fzL_nfD18VUowYK3P-np-62" value="&lt;font style=&quot;font-size: 16px;&quot;&gt;&lt;b&gt;Servidores login&lt;/b&gt;&lt;/font&gt;" style="text;html=1;strokeColor=none;fillColor=none;align=center;verticalAlign=middle;whiteSpace=wrap;rounded=0;rotation=90;" vertex="1" parent="1">
          <mxGeometry x="450.85" y="478.12" width="126.8" height="35.75" as="geometry" />
        </mxCell>
        <mxCell id="fzL_nfD18VUowYK3P-np-63" value="&lt;font style=&quot;font-size: 16px;&quot;&gt;&lt;b&gt;Ordenador usuario (cliente)&lt;/b&gt;&lt;/font&gt;" style="text;html=1;strokeColor=none;fillColor=none;align=center;verticalAlign=middle;whiteSpace=wrap;rounded=0;rotation=0;" vertex="1" parent="1">
          <mxGeometry x="324.05000000000007" y="696" width="126.8" height="35.75" as="geometry" />
        </mxCell>
        <mxCell id="fzL_nfD18VUowYK3P-np-64" value="" style="image;aspect=fixed;perimeter=ellipsePerimeter;html=1;align=center;shadow=0;dashed=0;spacingTop=3;image=img/lib/active_directory/hard_disk.svg;" vertex="1" parent="1">
          <mxGeometry x="740" y="191.9" width="50" height="27" as="geometry" />
        </mxCell>
        <mxCell id="fzL_nfD18VUowYK3P-np-68" value="" style="endArrow=block;startArrow=block;html=1;rounded=0;fillColor=#f8cecc;strokeColor=#b85450;strokeWidth=4;endFill=1;startFill=1;entryX=0;entryY=0.5;entryDx=0;entryDy=0;" edge="1" parent="1" target="fzL_nfD18VUowYK3P-np-64">
          <mxGeometry width="50" height="50" relative="1" as="geometry">
            <mxPoint x="680" y="205.10000000000002" as="sourcePoint" />
            <mxPoint x="724.15" y="205.11" as="targetPoint" />
          </mxGeometry>
        </mxCell>
        <mxCell id="fzL_nfD18VUowYK3P-np-70" value="/temporal/$USER/" style="text;html=1;strokeColor=none;fillColor=none;align=left;verticalAlign=middle;whiteSpace=wrap;rounded=0;" vertex="1" parent="1">
          <mxGeometry x="710" y="151.9" width="100" height="40" as="geometry" />
        </mxCell>
        <mxCell id="fzL_nfD18VUowYK3P-np-72" value="&lt;span style=&quot;font-size: 16px;&quot;&gt;&lt;b&gt;Discos locales&lt;/b&gt;&lt;/span&gt;" style="text;html=1;strokeColor=none;fillColor=none;align=center;verticalAlign=middle;whiteSpace=wrap;rounded=0;" vertex="1" parent="1">
          <mxGeometry x="700" y="116" width="126.8" height="35.75" as="geometry" />
        </mxCell>
        <mxCell id="fzL_nfD18VUowYK3P-np-73" value="" style="endArrow=none;html=1;rounded=0;fillColor=#dae8fc;strokeColor=#6c8ebf;strokeWidth=4;" edge="1" parent="1">
          <mxGeometry width="50" height="50" relative="1" as="geometry">
            <mxPoint x="520" y="697.75" as="sourcePoint" />
            <mxPoint x="570" y="697.75" as="targetPoint" />
          </mxGeometry>
        </mxCell>
        <mxCell id="fzL_nfD18VUowYK3P-np-74" value="" style="endArrow=none;html=1;rounded=0;fillColor=#f8cecc;strokeColor=#b85450;strokeWidth=4;" edge="1" parent="1">
          <mxGeometry width="50" height="50" relative="1" as="geometry">
            <mxPoint x="520" y="717.75" as="sourcePoint" />
            <mxPoint x="570" y="717.75" as="targetPoint" />
          </mxGeometry>
        </mxCell>
        <mxCell id="fzL_nfD18VUowYK3P-np-75" value="Conexión de red (Infiniband)" style="text;html=1;strokeColor=none;fillColor=none;align=left;verticalAlign=middle;whiteSpace=wrap;rounded=0;" vertex="1" parent="1">
          <mxGeometry x="575" y="682.75" width="180" height="30" as="geometry" />
        </mxCell>
        <mxCell id="fzL_nfD18VUowYK3P-np-76" value="Conexión física" style="text;html=1;strokeColor=none;fillColor=none;align=left;verticalAlign=middle;whiteSpace=wrap;rounded=0;" vertex="1" parent="1">
          <mxGeometry x="575" y="701.75" width="180" height="30" as="geometry" />
        </mxCell>
      </root>
    </mxGraphModel>
  </diagram>
</mxfile>
